# xmcd CD database file
#
# Track frame offsets:
#	150
#	17082
#	28655
#	43677
#	61107
#	74980
#	88587
#	102797
#	114702
#	129870
#
# Disc length: 1913 seconds
#
# Revision: 0
# Processed by: cddbd v1.5.2PL0 Copyright (c) Steve Scherf et al.
# Submitted via: CDex 1.51
#
DISCID=8407770a
DTITLE=David Cline - My Daddy's Music
DYEAR=1900
DGENRE=Country
TTITLE0=David Cline - My Daddy's Music
TTITLE1=David Cline - Six Pack To Go
TTITLE2=David Cline - Cheaper To Keep 'er
TTITLE3=David Cline - Don't Worry About Me
TTITLE4=David Cline - Hey Good Lookin'
TTITLE5=David Cline - I Really Don't Want To Know
TTITLE6=David Cline - Hello Love
TTITLE7=David Cline - Honky Tonk Blues
TTITLE8=David Cline - Honey's Little Hummer 
TTITLE9=David Cline - If I Can Dream
EXTD=
EXTT0=
EXTT1=
EXTT2=
EXTT3=
EXTT4=
EXTT5=
EXTT6=
EXTT7=
EXTT8=
EXTT9=
PLAYORDER=
